<svg width="102" height="17" viewBox="0 0 102 17" fill="none" xmlns="http://www.w3.org/2000/svg">
<g clip-path="url(#clip0_437_1882)">
<path d="M29.3239 9.54731V6.1663C29.3239 2.55864 31.9688 0.160156 35.9352 0.160156C38.7683 0.160156 40.9214 1.52004 41.828 3.71174L38.6736 5.05292C38.107 3.95708 37.163 3.27713 35.9352 3.27713C34.1033 3.27713 32.8754 4.505 32.8754 6.35556V9.35921C32.8754 11.2098 34.1033 12.4376 35.9539 12.4376C37.2378 12.4376 38.1829 11.7203 38.7496 10.5672L41.9226 11.8325C41.0534 14.1375 38.8816 15.5535 35.9539 15.5535C31.9688 15.5546 29.3239 13.1561 29.3239 9.54731Z" fill="#2F444E"/>
<path d="M52.9054 4.59844V15.3653H50.0104L49.9531 14.1749C49.2159 15.0441 48.1213 15.5534 46.8175 15.5534C44.2671 15.5534 42.5859 13.7776 42.5859 11.0953V8.86735C42.5859 6.18497 44.2671 4.40918 46.8175 4.40918C48.1213 4.40918 49.2159 4.91972 49.9531 5.78775L50.0104 4.59727H52.9054V4.59844ZM49.6692 10.7378V9.22718C49.6692 8.09394 48.9321 7.33806 47.8374 7.33806C46.7228 7.33806 45.9868 8.09394 45.9868 9.22718V10.7378C45.9868 11.871 46.724 12.6269 47.8374 12.6269C48.9332 12.6269 49.6692 11.871 49.6692 10.7378Z" fill="#2F444E"/>
<path d="M57.8124 7.24358V12.5137C57.8124 12.6457 57.8884 12.7217 58.0204 12.7217H60.0228V15.3666H57.7984C55.8532 15.3666 54.5681 14.3094 54.5681 12.703V1.72461H57.8136V4.59859H60.024V7.24358H57.8124Z" fill="#2F444E"/>
<path d="M63.3259 15.368H61.6144V4.60693H63.2687L63.2804 5.70862C64.0292 4.99247 65.055 4.60693 66.249 4.60693H67.3577V6.20982H66.0866C64.4358 6.20982 63.3259 7.34072 63.3259 9.02538V15.368Z" fill="#2F444E"/>
<path d="M71.4367 15.5486C68.7835 15.5486 67.0007 13.7226 67.0007 11.004V8.96064C67.0007 6.24204 68.7835 4.41602 71.4367 4.41602C72.73 4.41602 73.8247 4.84361 74.6051 5.63687L74.6168 4.5971H76.2711V15.3675H74.6168L74.6051 14.3079C73.8177 15.1046 72.7055 15.5486 71.4367 15.5486ZM71.6166 6.0189C69.8513 6.0189 68.7111 7.20938 68.7111 9.05059V10.8953C68.7111 12.7377 69.8513 13.927 71.6166 13.927C73.4041 13.927 74.5584 12.7365 74.5584 10.8953V9.05059C74.5584 7.20938 73.4041 6.0189 71.6166 6.0189Z" fill="#2F444E"/>
<path d="M82.2392 15.5485C79.586 15.5485 77.8032 13.7225 77.8032 11.0039V8.96058C77.8032 6.24199 79.586 4.41596 82.2392 4.41596C83.4974 4.41596 84.5769 4.8307 85.362 5.60177V0.714844H87.0735V15.3674H85.4193L85.4076 14.3078C84.6213 15.1046 83.5091 15.5485 82.2392 15.5485ZM82.4203 6.01885C80.655 6.01885 79.5148 7.20933 79.5148 9.05054V10.8953C79.5148 12.7376 80.655 13.927 82.4203 13.927C84.2077 13.927 85.362 12.7365 85.362 10.8953V9.05054C85.362 7.20933 84.2077 6.01885 82.4203 6.01885Z" fill="#2F444E"/>
<path d="M90.7015 15.3674H88.99V4.60639H90.7015V15.3674ZM90.7015 2.66704H88.99V0.714844H90.7015V2.66704Z" fill="#2F444E"/>
<path d="M97.1822 15.5486C94.4099 15.5486 92.5476 13.7004 92.5476 10.9502V9.01438C92.5476 6.26424 94.4099 4.41602 97.1822 4.41602C99.9545 4.41602 101.817 6.26424 101.817 9.01438V10.9491C101.818 13.7004 99.9545 15.5486 97.1822 15.5486ZM97.1822 6.0189C95.4333 6.0189 94.2591 7.24443 94.2591 9.06929V10.8953C94.2591 12.7377 95.4064 13.927 97.1822 13.927C98.958 13.927 100.106 12.7365 100.106 10.8953V9.06929C100.106 7.21639 98.9592 6.0189 97.1822 6.0189Z" fill="#2F444E"/>
<path d="M69.8784 0.507324L69.2721 2.02376L73.7641 3.81824L74.2572 2.58336L69.8784 0.507324Z" fill="#2F444E"/>
<path fill-rule="evenodd" clip-rule="evenodd" d="M11.5938 9.40533L0 16.0989V9.75399L16.8945 0V5.99636L26.0828 0.688033V7.03298L11.5938 15.4026V9.40533Z" fill="#FFD000"/>
</g>
<defs>
<clipPath id="clip0_437_1882">
<rect width="101.818" height="16.0989" fill="white"/>
</clipPath>
</defs>
</svg>
